# xmcd
#
# Track frame offsets: 
#        150
#        22150
#        38225
#        55032
#        72442
#        89582
#        110550
#        133797
#        152167
#        173830
#        188227
#        205690
#        222935
#
# Disc length: 3256 seconds
#
# Revision: 5
# Processed by: cddbd v1.5.2PL0 Copyright (c) Steve Scherf et al.
# Submitted via: ExactAudioCopy v0.99pb5
#
DISCID=bf0cb60d
DTITLE=Carolyn Dawn Johnson - Room With A View
DYEAR=2001
DGENRE=Country
TTITLE0=Georgia
TTITLE1=Just Another Girl
TTITLE2=I'll Think Of You That Way
TTITLE3=Love Is Always Worth The Ache
TTITLE4=Complicated
TTITLE5=I Don't Want You To Go
TTITLE6=You Are
TTITLE7=Masterpiece
TTITLE8=Little Bit Of This, Little Bit Of That
TTITLE9=One Day Closer To You
TTITLE10=Room With A View
TTITLE11=Tumble And Roll
TTITLE12=Not Enough To Stay
EXTD=Produce by Paul Worley and Carolyn Dawn Johnson\n YEAR: 2001
EXTT0=
EXTT1=
EXTT2=
EXTT3=
EXTT4=
EXTT5=
EXTT6=
EXTT7=
EXTT8=
EXTT9=
EXTT10=
EXTT11=
EXTT12=
PLAYORDER=
